<svg version="1.1" id="Layer_1" xmlns="http://www.w3.org/2000/svg" xmlns:xlink="http://www.w3.org/1999/xlink" x="0px" y="0px"
	 width="100%" viewBox="0 0 568 132" enable-background="new 0 0 568 132" xml:space="preserve">
<path fill="#FEFEFE" opacity="1.000000" stroke="none" 
	d="
M416.000000,133.000000 
	C277.333344,133.000000 139.166672,133.000000 1.000000,133.000000 
	C1.000000,89.000000 1.000000,45.000000 1.000000,1.000000 
	C190.333328,1.000000 379.666656,1.000000 569.000000,1.000000 
	C569.000000,45.000000 569.000000,89.000000 569.000000,133.000000 
	C518.166687,133.000000 467.333344,133.000000 416.000000,133.000000 
M153.916336,90.949036 
	C160.909851,90.934067 167.912415,91.139359 174.894714,90.851952 
	C185.091507,90.432228 192.733215,82.326767 190.748703,72.935944 
	C189.764267,68.277573 185.864365,64.235329 183.093140,59.595707 
	C186.835846,56.635437 189.487366,51.694492 187.654770,45.660374 
	C185.863190,39.761223 181.668701,35.262474 175.348404,34.753757 
	C167.308212,34.106606 159.176453,34.597046 151.206055,34.597046 
	C150.984650,34.878540 150.792328,35.008823 150.791443,35.140396 
	C150.672302,52.773827 150.526764,70.407448 150.570480,88.040604 
	C150.572876,89.009750 152.155212,89.974983 153.916336,90.949036 
M346.344482,85.341362 
	C346.184082,88.263702 345.857300,90.984627 350.319397,91.037361 
	C354.807739,91.090408 353.915161,88.163284 353.935028,85.632523 
	C353.978210,80.138283 353.948517,74.643463 353.948517,69.148880 
	C353.948547,63.107197 353.948517,57.065510 353.948517,51.023827 
	C359.423340,55.459431 363.699036,60.355225 367.991180,65.236542 
	C374.882904,73.074203 381.717163,80.964737 388.755829,88.668343 
	C389.835754,89.850334 391.879181,90.151962 393.477020,90.860741 
	C393.906281,89.361542 394.698212,87.864952 394.708984,86.362755 
	C394.824921,70.213120 394.828278,54.062599 394.820831,37.912338 
	C394.820312,36.793983 394.488159,35.675785 394.322906,34.637226 
	C387.138580,33.586952 387.056122,33.663372 387.060181,40.488060 
	C387.066986,51.930405 387.062073,63.372757 387.062073,75.387833 
	C386.111420,74.948883 384.731140,74.739182 384.063599,73.936615 
	C377.939117,66.573708 371.952484,59.096416 365.896606,51.676193 
	C361.710999,46.547688 357.637848,41.311127 353.164246,36.444763 
	C351.953400,35.127579 349.469055,34.981094 347.569214,34.297268 
	C347.200470,36.062706 346.678436,37.814064 346.514557,39.598316 
	C346.396606,40.882759 346.891815,42.212078 346.881897,43.519630 
	C346.778625,57.166988 346.628418,70.813988 346.344482,85.341362 
M87.489937,105.941811 
	C91.902534,101.805786 93.290756,96.321884 93.689316,90.667221 
	C94.257774,82.602303 92.003624,81.187897 83.929665,81.572472 
	C74.673096,82.013367 65.353508,81.790482 56.093769,81.273849 
	C49.901878,80.928375 48.502090,81.612480 48.013676,87.829674 
	C47.201027,98.174263 52.000031,106.590195 60.836529,111.071419 
	C67.584305,114.493393 80.543266,114.013893 87.489937,105.941811 
M59.762432,17.346724 
	C46.604897,23.946877 33.447357,30.547029 20.092014,37.246407 
	C21.681175,40.347534 22.946630,42.816978 24.272413,45.404148 
	C25.761984,44.786160 26.850489,44.404400 27.877451,43.897865 
	C40.387951,37.727280 52.952709,31.661362 65.354538,25.279049 
	C69.063866,23.370132 72.042671,22.926853 75.911171,25.128248 
	C82.990990,29.157055 90.441673,32.536217 97.752525,36.156353 
	C104.116714,39.307732 110.501350,42.417816 117.240387,45.724480 
	C118.736588,42.610863 119.977753,40.027977 121.343994,37.184803 
	C107.413490,30.285471 93.735451,24.184244 80.769150,16.828440 
	C73.389580,12.641998 67.177971,11.863064 59.762432,17.346724 
M42.850449,50.324017 
	C41.022972,51.182064 39.195496,52.040108 36.749134,53.188740 
	C47.593994,57.633633 57.562115,61.752609 67.567284,65.779533 
	C68.885002,66.309898 70.635216,66.994148 71.773552,66.550674 
	C82.532707,62.359131 93.202576,57.938412 105.197899,53.054565 
	C94.304703,48.620991 84.639793,44.810444 75.091248,40.727730 
	C72.138313,39.465126 69.666565,39.295902 66.639900,40.632595 
	C59.039734,43.989140 51.262897,46.945656 42.850449,50.324017 
M204.015488,79.336533 
	C205.388000,80.781876 206.689514,82.303375 208.144440,83.660355 
	C218.521698,93.339096 235.656052,93.552101 246.119415,84.237862 
	C248.109665,82.466179 248.942413,80.962029 246.169220,79.230965 
	C245.063507,78.540756 244.048615,77.705025 243.046051,76.974632 
	C228.330185,86.390976 219.425644,85.940079 210.616501,75.798981 
	C204.438858,68.687271 204.850769,55.255493 212.263382,47.491100 
	C220.627335,38.730240 230.249817,38.832291 243.094101,47.960819 
	C249.017349,44.336063 249.329285,43.575188 246.010559,40.847145 
	C234.883087,31.700191 219.287903,31.684591 208.983292,40.425095 
	C197.743027,49.959232 195.244370,67.066444 204.015488,79.336533 
M311.509460,57.521759 
	C311.511780,66.507927 311.501526,75.494125 311.520599,84.480263 
	C311.534424,90.986610 312.299286,91.586998 319.244049,90.208618 
	C319.244049,74.262886 319.244049,58.217445 319.244049,41.778652 
	C325.312531,41.778652 330.905884,41.778652 336.762207,41.778652 
	C336.762207,39.132263 336.762207,36.889053 336.762207,34.154694 
	C323.688843,34.154694 310.751709,34.227028 297.816498,34.101101 
	C294.785736,34.071594 293.202423,34.613651 293.259216,38.146538 
	C293.317810,41.791542 295.251495,42.116623 298.089294,42.042263 
	C302.677948,41.922024 307.272064,42.009918 311.516144,42.009918 
	C311.516144,47.234077 311.516144,51.883415 311.509460,57.521759 
M411.023926,58.385792 
	C409.821625,59.524426 408.517181,60.574043 407.433929,61.816498 
	C401.433594,68.698776 402.032166,80.147034 408.657776,86.252129 
	C415.571899,92.623062 425.997925,92.690445 432.502075,86.582291 
	C434.624359,84.589264 435.098511,82.974854 432.808685,80.991837 
	C421.093201,87.127472 413.731110,85.566330 410.787201,76.013000 
	C417.348816,76.013000 423.763245,76.023849 430.177612,76.009903 
	C436.402008,75.996376 438.383820,73.149330 436.304413,67.164848 
	C433.255310,58.389706 422.826660,51.404606 411.023926,58.385792 
M496.159973,84.721588 
	C491.352142,83.092316 489.603058,79.716980 489.945557,74.732834 
	C490.241669,70.424011 490.014740,66.078728 490.005615,61.749588 
	C489.992645,55.603180 489.956726,55.578049 482.992798,56.369793 
	C482.992798,63.277924 482.980408,70.237747 482.995972,77.197510 
	C483.014374,85.436447 488.362366,91.233185 496.539154,90.845718 
	C500.609619,90.652832 504.600677,88.783737 507.302246,88.038513 
	C510.338867,89.412933 512.724854,90.492867 515.740845,91.857941 
	C515.740845,79.131607 515.740845,67.721954 515.740845,56.155346 
	C513.373535,56.155346 511.273926,56.155346 508.690643,56.155346 
	C508.690643,62.000221 508.649109,67.626945 508.700745,73.252823 
	C508.771515,80.958260 504.849792,84.879852 496.159973,84.721588 
M47.957294,61.921417 
	C47.959839,65.414635 47.748039,68.928307 48.078278,72.390266 
	C48.197899,73.644279 49.596741,75.794350 50.441658,75.808922 
	C63.846779,76.040115 77.257782,76.061935 90.663658,75.869209 
	C91.739342,75.853737 93.598450,73.991890 93.702393,72.860283 
	C94.074715,68.806877 93.848289,64.698479 93.848289,60.003971 
	C87.225075,62.690235 81.231285,65.014481 75.331932,67.557785 
	C72.266144,68.879494 69.579826,69.013779 66.348061,67.625275 
	C60.473541,65.101334 54.319168,63.228771 47.957294,61.921417 
M548.267639,67.870636 
	C550.976135,64.233177 553.684692,60.595726 556.673462,56.581898 
	C551.126038,55.064224 547.415344,55.776711 545.312622,60.685009 
	C544.608826,62.327881 543.790283,63.968544 542.737732,65.399506 
	C541.956787,66.461212 540.753235,67.785072 539.662231,67.857964 
	C538.842346,67.912735 537.552612,66.316711 537.071350,65.197792 
	C533.572876,57.064667 531.314636,55.444344 523.376099,56.480263 
	C527.564636,62.352764 531.523926,67.903839 535.430054,73.380310 
	C531.447937,79.001007 527.613708,84.412880 523.574646,90.113976 
	C528.730225,91.837029 531.944458,91.017220 533.990173,86.783020 
	C534.913574,84.871803 536.213196,83.145699 537.280396,81.299934 
	C539.186646,78.003212 540.644043,78.020706 542.699524,81.399948 
	C543.722839,83.082237 544.965393,84.664337 545.757080,86.447884 
	C547.863525,91.193718 551.394775,91.766846 556.695862,90.186996 
	C553.662720,86.173218 551.146484,82.337074 548.112915,78.966522 
	C544.857178,75.349167 543.756714,72.081535 548.267639,67.870636 
M456.013794,65.649124 
	C455.014526,63.938892 453.968567,62.253960 453.025360,60.513348 
	C450.812744,56.430168 447.804321,54.496490 442.483704,56.837166 
	C446.541046,62.482494 450.446655,67.916695 454.399963,73.417259 
	C450.413483,78.978844 446.533203,84.392227 442.378937,90.187904 
	C447.553711,91.870491 450.659424,90.811401 452.909241,86.647369 
	C454.409058,83.871452 456.477600,81.402824 458.291595,78.796646 
	C460.327942,81.351456 462.549896,83.782562 464.355011,86.491447 
	C466.773499,90.120872 469.521484,92.259552 474.781128,90.073441 
	C472.008209,86.025581 469.840485,81.919426 466.783722,78.642601 
	C463.143341,74.740112 463.774292,71.759399 466.864655,68.047806 
	C469.851227,64.460915 472.300873,60.427002 475.208923,56.271439 
	C467.694000,55.638382 467.701263,55.643303 464.047485,61.038902 
	C462.759430,62.940998 461.637543,65.034828 460.006317,66.584915 
	C459.386505,67.173866 457.548035,66.480278 456.013794,65.649124 
M264.854980,67.499985 
	C264.854980,56.459713 264.854980,45.419437 264.854980,34.522575 
	C262.069061,34.522575 260.165649,34.522575 257.936401,34.522575 
	C257.936401,51.678925 257.932983,68.460144 257.938202,85.241364 
	C257.940125,91.429794 258.087708,91.538254 264.854950,90.290596 
	C264.854950,83.078087 264.854950,75.789017 264.854980,67.499985 
M284.090607,61.501198 
	C284.081146,54.345516 284.007721,47.189178 284.081604,40.034359 
	C284.144867,33.904476 283.248138,33.197552 277.362061,34.952362 
	C277.362061,53.562241 277.362061,72.111092 277.362061,90.632401 
	C279.742615,90.632401 281.662109,90.632401 284.062622,90.632401 
	C284.062622,81.054787 284.062622,71.777985 284.090607,61.501198 
M99.011238,75.275772 
	C99.613632,76.044724 100.216026,76.813675 100.818428,77.582626 
	C101.241653,77.384323 101.664879,77.186028 102.088104,76.987724 
	C101.625893,70.603081 101.163681,64.218445 100.701469,57.833805 
	C100.514313,57.827866 100.327156,57.821926 100.139992,57.815987 
	C99.781395,63.378880 99.422798,68.941772 99.011238,75.275772 
z"/>
<path fill="#1B3555" opacity="1.000000" stroke="none" 
	d="
M153.459229,90.945541 
	C152.155212,89.974983 150.572876,89.009750 150.570480,88.040604 
	C150.526764,70.407448 150.672302,52.773827 150.791443,35.140396 
	C150.792328,35.008823 150.984650,34.878540 151.206055,34.597046 
	C159.176453,34.597046 167.308212,34.106606 175.348404,34.753757 
	C181.668701,35.262474 185.863190,39.761223 187.654770,45.660374 
	C189.487366,51.694492 186.835846,56.635437 183.093140,59.595707 
	C185.864365,64.235329 189.764267,68.277573 190.748703,72.935944 
	C192.733215,82.326767 185.091507,90.432228 174.894714,90.851952 
	C167.912415,91.139359 160.909851,90.934067 153.459229,90.945541 
M182.217728,78.286270 
	C184.022812,71.840256 181.777496,66.597481 176.412033,66.142456 
	C170.551422,65.645439 164.616089,66.029465 158.695023,66.029465 
	C158.695023,71.929489 158.695023,77.307716 158.695023,83.031387 
	C163.619202,83.031387 168.237183,82.858109 172.835388,83.085106 
	C176.652664,83.273560 179.594254,82.051819 182.217728,78.286270 
M179.988113,49.656651 
	C179.538742,45.945637 178.044281,42.565311 174.084045,42.163517 
	C168.910873,41.638660 163.644241,42.034981 158.201935,42.034981 
	C158.201935,43.601452 158.197464,44.568787 158.202606,45.536072 
	C158.275604,59.262474 158.267136,59.142807 172.116028,58.127499 
	C177.181351,57.756145 179.431946,55.132610 179.988113,49.656651 
z"/>
<path fill="#1B3656" opacity="1.000000" stroke="none" 
	d="
M346.417847,84.901230 
	C346.628418,70.813988 346.778625,57.166988 346.881897,43.519630 
	C346.891815,42.212078 346.396606,40.882759 346.514557,39.598316 
	C346.678436,37.814064 347.200470,36.062706 347.569214,34.297272 
	C349.469055,34.981094 351.953400,35.127579 353.164246,36.444763 
	C357.637848,41.311127 361.710999,46.547688 365.896606,51.676193 
	C371.952484,59.096416 377.939117,66.573708 384.063599,73.936615 
	C384.731140,74.739182 386.111420,74.948883 387.062073,75.387833 
	C387.062073,63.372757 387.066986,51.930405 387.060181,40.488060 
	C387.056122,33.663372 387.138580,33.586952 394.322906,34.637226 
	C394.488159,35.675785 394.820312,36.793983 394.820831,37.912338 
	C394.828278,54.062599 394.824921,70.213120 394.708984,86.362755 
	C394.698212,87.864952 393.906281,89.361542 393.477020,90.860748 
	C391.879181,90.151962 389.835754,89.850334 388.755829,88.668343 
	C381.717163,80.964737 374.882904,73.074203 367.991180,65.236542 
	C363.699036,60.355225 359.423340,55.459431 353.948517,51.023827 
	C353.948517,57.065510 353.948547,63.107197 353.948517,69.148880 
	C353.948517,74.643463 353.978210,80.138283 353.935028,85.632523 
	C353.915161,88.163284 354.807739,91.090408 350.319397,91.037361 
	C345.857300,90.984627 346.184082,88.263702 346.417847,84.901230 
z"/>
<path fill="#4174B0" opacity="1.000000" stroke="none" 
	d="
M87.246910,106.212303 
	C80.543266,114.013893 67.584305,114.493393 60.836529,111.071419 
	C52.000031,106.590195 47.201027,98.174263 48.013676,87.829674 
	C48.502090,81.612480 49.901878,80.928375 56.093769,81.273849 
	C65.353508,81.790482 74.673096,82.013367 83.929665,81.572472 
	C92.003624,81.187897 94.257774,82.602303 93.689316,90.667221 
	C93.290756,96.321884 91.902534,101.805786 87.246910,106.212303 
z"/>
<path fill="#4576B1" opacity="1.000000" stroke="none" 
	d="
M60.104797,17.198536 
	C67.177971,11.863064 73.389580,12.641998 80.769150,16.828440 
	C93.735451,24.184244 107.413490,30.285471 121.343994,37.184803 
	C119.977753,40.027977 118.736588,42.610863 117.240387,45.724480 
	C110.501350,42.417816 104.116714,39.307732 97.752525,36.156353 
	C90.441673,32.536217 82.990990,29.157055 75.911171,25.128248 
	C72.042671,22.926853 69.063866,23.370132 65.354538,25.279049 
	C52.952709,31.661362 40.387951,37.727280 27.877451,43.897865 
	C26.850489,44.404400 25.761984,44.786160 24.272413,45.404148 
	C22.946630,42.816978 21.681175,40.347534 20.092014,37.246407 
	C33.447357,30.547029 46.604897,23.946877 60.104797,17.198536 
z"/>
<path fill="#4375B1" opacity="1.000000" stroke="none" 
	d="
M43.203678,50.193298 
	C51.262897,46.945656 59.039734,43.989140 66.639900,40.632595 
	C69.666565,39.295902 72.138313,39.465126 75.091248,40.727730 
	C84.639793,44.810444 94.304703,48.620991 105.197899,53.054565 
	C93.202576,57.938412 82.532707,62.359131 71.773552,66.550674 
	C70.635216,66.994148 68.885002,66.309898 67.567284,65.779533 
	C57.562115,61.752609 47.593994,57.633633 36.749134,53.188740 
	C39.195496,52.040108 41.022972,51.182064 43.203678,50.193298 
z"/>
<path fill="#163152" opacity="1.000000" stroke="none" 
	d="
M203.891388,78.990433 
	C195.244370,67.066444 197.743027,49.959232 208.983292,40.425095 
	C219.287903,31.684591 234.883087,31.700191 246.010559,40.847145 
	C249.329285,43.575188 249.017349,44.336063 243.094101,47.960819 
	C230.249817,38.832291 220.627335,38.730240 212.263382,47.491100 
	C204.850769,55.255493 204.438858,68.687271 210.616501,75.798981 
	C219.425644,85.940079 228.330185,86.390976 243.046051,76.974632 
	C244.048615,77.705025 245.063507,78.540756 246.169220,79.230965 
	C248.942413,80.962029 248.109665,82.466179 246.119415,84.237862 
	C235.656052,93.552101 218.521698,93.339096 208.144440,83.660355 
	C206.689514,82.303375 205.388000,80.781876 203.891388,78.990433 
z"/>
<path fill="#173252" opacity="1.000000" stroke="none" 
	d="
M311.512817,57.027252 
	C311.516144,51.883415 311.516144,47.234077 311.516144,42.009918 
	C307.272064,42.009918 302.677948,41.922024 298.089294,42.042263 
	C295.251495,42.116623 293.317810,41.791542 293.259216,38.146538 
	C293.202423,34.613651 294.785736,34.071594 297.816498,34.101101 
	C310.751709,34.227028 323.688843,34.154694 336.762207,34.154694 
	C336.762207,36.889053 336.762207,39.132263 336.762207,41.778652 
	C330.905884,41.778652 325.312531,41.778652 319.244049,41.778652 
	C319.244049,58.217445 319.244049,74.262886 319.244049,90.208618 
	C312.299286,91.586998 311.534424,90.986610 311.520599,84.480263 
	C311.501526,75.494125 311.511780,66.507927 311.512817,57.027252 
z"/>
<path fill="#193454" opacity="1.000000" stroke="none" 
	d="
M411.335144,58.170071 
	C422.826660,51.404606 433.255310,58.389706 436.304413,67.164848 
	C438.383820,73.149330 436.402008,75.996376 430.177612,76.009903 
	C423.763245,76.023849 417.348816,76.013000 410.787201,76.013000 
	C413.731110,85.566330 421.093201,87.127472 432.808685,80.991837 
	C435.098511,82.974854 434.624359,84.589264 432.502075,86.582291 
	C425.997925,92.690445 415.571899,92.623062 408.657776,86.252129 
	C402.032166,80.147034 401.433594,68.698776 407.433929,61.816498 
	C408.517181,60.574043 409.821625,59.524426 411.335144,58.170071 
M411.242401,70.528084 
	C417.405304,70.528084 423.568207,70.528084 429.800598,70.528084 
	C428.750885,65.456322 425.025299,62.085770 420.701111,61.942398 
	C416.082214,61.789253 412.357178,64.735519 411.242401,70.528084 
z"/>
<path fill="#153051" opacity="1.000000" stroke="none" 
	d="
M496.543365,84.824318 
	C504.849792,84.879852 508.771515,80.958260 508.700745,73.252823 
	C508.649109,67.626945 508.690643,62.000221 508.690643,56.155346 
	C511.273926,56.155346 513.373535,56.155346 515.740845,56.155346 
	C515.740845,67.721954 515.740845,79.131607 515.740845,91.857941 
	C512.724854,90.492867 510.338867,89.412933 507.302246,88.038513 
	C504.600677,88.783737 500.609619,90.652832 496.539154,90.845718 
	C488.362366,91.233185 483.014374,85.436447 482.995972,77.197510 
	C482.980408,70.237747 482.992798,63.277924 482.992798,56.369793 
	C489.956726,55.578049 489.992645,55.603180 490.005615,61.749588 
	C490.014740,66.078728 490.241669,70.424011 489.945557,74.732834 
	C489.603058,79.716980 491.352142,83.092316 496.543365,84.824318 
z"/>
<path fill="#4576B1" opacity="1.000000" stroke="none" 
	d="
M48.119438,61.502892 
	C54.319168,63.228771 60.473541,65.101334 66.348061,67.625275 
	C69.579826,69.013779 72.266144,68.879494 75.331932,67.557785 
	C81.231285,65.014481 87.225075,62.690235 93.848289,60.003971 
	C93.848289,64.698479 94.074715,68.806877 93.702393,72.860283 
	C93.598450,73.991890 91.739342,75.853737 90.663658,75.869209 
	C77.257782,76.061935 63.846779,76.040115 50.441658,75.808922 
	C49.596741,75.794350 48.197899,73.644279 48.078278,72.390266 
	C47.748039,68.928307 47.959839,65.414635 48.119438,61.502892 
z"/>
<path fill="#193454" opacity="1.000000" stroke="none" 
	d="
M548.047241,68.164276 
	C543.756714,72.081535 544.857178,75.349167 548.112915,78.966522 
	C551.146484,82.337074 553.662720,86.173218 556.695862,90.186996 
	C551.394775,91.766846 547.863525,91.193718 545.757080,86.447884 
	C544.965393,84.664337 543.722839,83.082237 542.699524,81.399948 
	C540.644043,78.020706 539.186646,78.003212 537.280396,81.299934 
	C536.213196,83.145699 534.913574,84.871803 533.990173,86.783020 
	C531.944458,91.017220 528.730225,91.837029 523.574646,90.113976 
	C527.613708,84.412880 531.447937,79.001007 535.430054,73.380310 
	C531.523926,67.903839 527.564636,62.352764 523.376099,56.480263 
	C531.314636,55.444344 533.572876,57.064667 537.071350,65.197792 
	C537.552612,66.316711 538.842346,67.912735 539.662231,67.857964 
	C540.753235,67.785072 541.956787,66.461212 542.737732,65.399506 
	C543.790283,63.968544 544.608826,62.327881 545.312622,60.685009 
	C547.415344,55.776711 551.126038,55.064224 556.673462,56.581898 
	C553.684692,60.595726 550.976135,64.233177 548.047241,68.164276 
z"/>
<path fill="#193454" opacity="1.000000" stroke="none" 
	d="
M456.139404,66.010178 
	C457.548035,66.480278 459.386505,67.173866 460.006317,66.584915 
	C461.637543,65.034828 462.759430,62.940998 464.047485,61.038902 
	C467.701263,55.643303 467.694000,55.638382 475.208923,56.271439 
	C472.300873,60.427002 469.851227,64.460915 466.864655,68.047806 
	C463.774292,71.759399 463.143341,74.740112 466.783722,78.642601 
	C469.840485,81.919426 472.008209,86.025581 474.781128,90.073441 
	C469.521484,92.259552 466.773499,90.120872 464.355011,86.491447 
	C462.549896,83.782562 460.327942,81.351456 458.291595,78.796646 
	C456.477600,81.402824 454.409058,83.871452 452.909241,86.647369 
	C450.659424,90.811401 447.553711,91.870491 442.378937,90.187904 
	C446.533203,84.392227 450.413483,78.978844 454.399963,73.417259 
	C450.446655,67.916695 446.541046,62.482494 442.483704,56.837166 
	C447.804321,54.496490 450.812744,56.430168 453.025360,60.513348 
	C453.968567,62.253960 455.014526,63.938892 456.139404,66.010178 
z"/>
<path fill="#1B3655" opacity="1.000000" stroke="none" 
	d="
M264.854980,67.999969 
	C264.854950,75.789017 264.854950,83.078087 264.854950,90.290596 
	C258.087708,91.538254 257.940125,91.429794 257.938202,85.241364 
	C257.932983,68.460144 257.936401,51.678925 257.936401,34.522575 
	C260.165649,34.522575 262.069061,34.522575 264.854980,34.522575 
	C264.854980,45.419437 264.854980,56.459713 264.854980,67.999969 
z"/>
<path fill="#173252" opacity="1.000000" stroke="none" 
	d="
M284.076599,62.001190 
	C284.062622,71.777985 284.062622,81.054787 284.062622,90.632401 
	C281.662109,90.632401 279.742615,90.632401 277.362061,90.632401 
	C277.362061,72.111092 277.362061,53.562241 277.362061,34.952362 
	C283.248138,33.197552 284.144867,33.904476 284.081604,40.034359 
	C284.007721,47.189178 284.081146,54.345516 284.076599,62.001190 
z"/>
<path fill="#4D7CB5" opacity="1.000000" stroke="none" 
	d="
M99.037720,74.890221 
	C99.422798,68.941772 99.781395,63.378880 100.139992,57.815987 
	C100.327156,57.821926 100.514313,57.827866 100.701469,57.833805 
	C101.163681,64.218445 101.625893,70.603081 102.088104,76.987724 
	C101.664879,77.186028 101.241653,77.384323 100.818428,77.582626 
	C100.216026,76.813675 99.613632,76.044724 99.037720,74.890221 
z"/>
<path fill="#FAFAFB" opacity="1.000000" stroke="none" 
	d="
M182.008179,78.628868 
	C179.594254,82.051819 176.652664,83.273560 172.835388,83.085106 
	C168.237183,82.858109 163.619202,83.031387 158.695023,83.031387 
	C158.695023,77.307716 158.695023,71.929489 158.695023,66.029465 
	C164.616089,66.029465 170.551422,65.645439 176.412033,66.142456 
	C181.777496,66.597481 184.022812,71.840256 182.008179,78.628868 
z"/>
<path fill="#FAFAFB" opacity="1.000000" stroke="none" 
	d="
M179.989746,50.056046 
	C179.431946,55.132610 177.181351,57.756145 172.116028,58.127499 
	C158.267136,59.142807 158.275604,59.262474 158.202606,45.536072 
	C158.197464,44.568787 158.201935,43.601452 158.201935,42.034981 
	C163.644241,42.034981 168.910873,41.638660 174.084045,42.163517 
	C178.044281,42.565311 179.538742,45.945637 179.989746,50.056046 
z"/>
<path fill="#F7F8F9" opacity="1.000000" stroke="none" 
	d="
M410.986023,70.178596 
	C412.357178,64.735519 416.082214,61.789253 420.701111,61.942398 
	C425.025299,62.085770 428.750885,65.456322 429.800598,70.528084 
	C423.568207,70.528084 417.405304,70.528084 410.986023,70.178596 
z"/>
</svg>